<?xml version="1.0" standalone="no"?>
<!DOCTYPE svg PUBLIC "-//W3C//DTD SVG 20010904//EN"
 "http://www.w3.org/TR/2001/REC-SVG-20010904/DTD/svg10.dtd">
<svg version="1.0" xmlns="http://www.w3.org/2000/svg"
 width="1280.000000pt" height="1280.000000pt" viewBox="0 0 1280.000000 1280.000000"
 preserveAspectRatio="xMidYMid meet">
<metadata>
Created by potrace 1.15, written by Peter Selinger 2001-2017
</metadata>
<g transform="translate(0.000000,1280.000000) scale(0.100000,-0.100000)"
fill="#000000" stroke="none">
<path d="M8420 12497 c-598 -453 -999 -847 -1135 -1117 -140 -279 -497 -1258
-1037 -2845 -187 -551 -764 -2282 -848 -2548 l-54 -168 -82 -65 c-198 -154
-561 -588 -685 -818 l-43 -80 -20 29 c-175 241 -437 374 -801 407 -288 26
-628 -32 -970 -165 -601 -233 -1154 -697 -1516 -1272 -139 -221 -264 -520
-305 -731 -24 -121 -24 -344 -1 -439 68 -274 278 -462 582 -521 127 -25 370
-23 528 5 699 123 1476 553 2038 1127 263 269 406 494 506 793 25 74 56 158
70 186 117 230 364 465 631 599 l72 36 0 -64 c0 -144 -53 -342 -135 -507 -89
-178 -179 -284 -365 -434 -347 -279 -577 -635 -755 -1170 -183 -551 -225
-1162 -110 -1616 61 -243 160 -426 304 -562 336 -315 844 -261 1359 146 108
85 314 293 412 417 323 406 532 864 617 1345 22 127 25 540 5 655 -69 387
-222 678 -457 866 -139 112 -324 192 -490 213 -42 5 -79 12 -82 15 -4 3 -1 6
5 6 19 0 160 177 248 310 161 246 297 504 348 661 l31 98 430 343 c1431 1139
2794 2247 3547 2880 659 555 871 754 980 918 121 183 271 510 391 855 74 210
170 525 161 525 -3 0 -1122 -865 -2488 -1923 -1365 -1058 -2487 -1927 -2494
-1930 -7 -5 -6 7 3 35 56 165 1745 5594 1743 5600 -2 4 -64 -39 -138 -95z
m-4908 -7587 c342 -33 596 -210 663 -461 71 -264 -101 -613 -482 -979 -447
-430 -1097 -814 -1588 -937 -135 -33 -360 -43 -454 -19 -322 83 -429 381 -289
805 18 52 62 156 99 231 202 409 566 810 954 1055 260 164 595 282 864 304 53
5 103 9 111 10 8 0 63 -4 122 -9z m2192 -1176 c305 -77 529 -347 613 -737 28
-129 25 -476 -6 -617 -75 -349 -267 -739 -517 -1046 -104 -129 -313 -328 -422
-402 -216 -148 -431 -214 -597 -183 -242 44 -394 250 -446 604 -28 188 -10
534 42 805 164 859 568 1493 1009 1581 30 6 64 13 75 15 35 8 187 -4 249 -20z"/>
</g>
</svg>
