<?xml version="1.0" standalone="no"?>
<!DOCTYPE svg PUBLIC "-//W3C//DTD SVG 20010904//EN"
 "http://www.w3.org/TR/2001/REC-SVG-20010904/DTD/svg10.dtd">
<svg version="1.0" xmlns="http://www.w3.org/2000/svg"
 width="1097.000000pt" height="1280.000000pt" viewBox="0 0 1097.000000 1280.000000"
 preserveAspectRatio="xMidYMid meet">
<metadata>
Created by potrace 1.15, written by Peter Selinger 2001-2017
</metadata>
<g transform="translate(0.000000,1280.000000) scale(0.100000,-0.100000)"
fill="#000000" stroke="none">
<path d="M6215 12785 c-62 -17 -81 -24 -690 -275 -485 -199 -492 -202 -680
-319 -104 -65 -320 -196 -480 -291 -444 -265 -539 -333 -701 -503 -203 -213
-434 -536 -761 -1065 -65 -105 -166 -262 -225 -349 -168 -249 -316 -551 -418
-853 -78 -230 -168 -398 -292 -542 -32 -37 -167 -166 -301 -287 -232 -210
-550 -521 -534 -521 5 0 -23 -38 -62 -85 -145 -176 -282 -405 -463 -775 -66
-135 -156 -318 -199 -406 -43 -89 -105 -202 -138 -251 -130 -199 -163 -364
-126 -643 7 -58 41 -256 74 -440 71 -390 91 -543 91 -695 -1 -192 -18 -254
-145 -518 -26 -53 -50 -95 -54 -92 -5 2 -24 -37 -44 -88 -60 -155 -73 -231
-57 -346 20 -144 75 -275 214 -508 95 -160 162 -250 247 -333 71 -69 81 -75
440 -248 269 -129 374 -202 459 -317 116 -159 263 -410 454 -774 139 -266 239
-406 401 -560 183 -174 369 -258 665 -301 242 -35 405 -68 630 -128 41 -11
156 -41 255 -67 99 -25 245 -69 325 -96 283 -98 304 -103 425 -103 125 0 196
15 348 75 143 57 189 82 552 299 523 313 820 480 934 527 198 83 418 140 646
168 85 10 364 15 1171 21 l1059 7 76 23 c133 42 204 99 400 324 210 240 372
526 457 805 48 155 55 211 48 348 -15 296 -18 536 -7 635 17 162 57 225 200
321 109 74 306 275 383 391 115 175 166 310 175 465 7 118 -7 194 -69 380
-104 312 -176 557 -209 705 -59 277 -135 419 -355 675 -322 374 -366 443 -575
900 -153 337 -245 489 -414 685 -232 271 -428 559 -601 885 -165 311 -403 885
-637 1535 -49 136 -82 234 -182 555 -105 333 -106 338 -115 495 -15 262 -44
333 -209 516 -83 93 -212 205 -391 340 -30 23 -83 66 -116 95 -34 30 -111 96
-170 148 -60 52 -170 154 -244 226 -247 240 -311 272 -465 230z"/>
</g>
</svg>
